<svg width="20" height="20" viewBox="0 0 20 20" fill="none" xmlns="http://www.w3.org/2000/svg">
<g clip-path="url(#clip0_1_2182)">
<path d="M15.1171 18.0168C14.3838 18.2335 13.5171 18.3335 12.5005 18.3335H7.50046C6.48379 18.3335 5.61712 18.2335 4.88379 18.0168C5.06712 15.8502 7.29212 14.1418 10.0005 14.1418C12.7088 14.1418 14.9338 15.8502 15.1171 18.0168V18.0168Z" stroke="#4F4F4F" stroke-width="1.5" stroke-linecap="round" stroke-linejoin="round"/>
<path d="M12.5003 1.66675H7.50033C3.33366 1.66675 1.66699 3.33341 1.66699 7.50008V12.5001C1.66699 15.6501 2.61699 17.3751 4.88366 18.0167C5.06699 15.8501 7.29199 14.1417 10.0003 14.1417C12.7087 14.1417 14.9337 15.8501 15.117 18.0167C17.3837 17.3751 18.3337 15.6501 18.3337 12.5001V7.50008C18.3337 3.33341 16.667 1.66675 12.5003 1.66675ZM10.0003 11.8084C8.35033 11.8084 7.01699 10.4667 7.01699 8.81675C7.01699 7.16675 8.35033 5.83341 10.0003 5.83341C11.6503 5.83341 12.9837 7.16675 12.9837 8.81675C12.9837 10.4667 11.6503 11.8084 10.0003 11.8084Z" stroke="#4F4F4F" stroke-width="1.5" stroke-linecap="round" stroke-linejoin="round"/>
<path d="M12.9833 8.81683C12.9833 10.4668 11.6499 11.8085 9.99993 11.8085C8.34993 11.8085 7.0166 10.4668 7.0166 8.81683C7.0166 7.16683 8.34993 5.8335 9.99993 5.8335C11.6499 5.8335 12.9833 7.16683 12.9833 8.81683Z" stroke="#4F4F4F" stroke-width="1.5" stroke-linecap="round" stroke-linejoin="round"/>
</g>
<defs>
<clipPath id="clip0_1_2182">
<rect width="20" height="20" fill="white"/>
</clipPath>
</defs>
</svg>
