<svg width="22" height="22" viewBox="0 0 22 22" fill="none" xmlns="http://www.w3.org/2000/svg">
<path d="M11.0001 17.417C11.9726 17.417 12.9052 17.0306 13.5928 16.343C14.2805 15.6554 14.6668 14.7227 14.6668 13.7503C14.6668 12.7778 14.2805 11.8452 13.5928 11.1576C12.9052 10.4699 11.9726 10.0836 11.0001 10.0836C10.0276 10.0836 9.09501 10.4699 8.40738 11.1576C7.71974 11.8452 7.33344 12.7778 7.33344 13.7503C7.33344 14.7227 7.71974 15.6554 8.40738 16.343C9.09501 17.0306 10.0276 17.417 11.0001 17.417V17.417Z" stroke="#2F80ED" stroke-width="1.5" stroke-miterlimit="10" stroke-linecap="round" stroke-linejoin="round"/>
<path d="M9.57031 13.7504L10.1661 14.3462C10.3403 14.5204 10.6245 14.5295 10.7986 14.3554L12.4303 12.8521" stroke="#2F80ED" stroke-width="1.5" stroke-linecap="round" stroke-linejoin="round"/>
<path d="M8.25009 20.167H13.7501C17.4351 20.167 18.0951 18.6911 18.2876 16.8945L18.9751 11.3945C19.2226 9.15779 18.5809 7.33362 14.6668 7.33362H7.33342C3.41925 7.33362 2.77759 9.15779 3.02509 11.3945L3.71259 16.8945C3.90509 18.6911 4.56509 20.167 8.25009 20.167Z" stroke="#2F80ED" stroke-width="1.5" stroke-miterlimit="10" stroke-linecap="round" stroke-linejoin="round"/>
<path d="M6.87506 7.03108V6.14191C6.87506 4.07941 8.53423 2.05357 10.5967 1.86107C11.1698 1.80477 11.7483 1.86908 12.295 2.04985C12.8418 2.23063 13.3446 2.52387 13.7711 2.9107C14.1977 3.29753 14.5385 3.76939 14.7717 4.2959C15.0049 4.82241 15.1253 5.39191 15.1251 5.96774V7.23274" stroke="#2F80ED" stroke-width="1.5" stroke-miterlimit="10" stroke-linecap="round" stroke-linejoin="round"/>
</svg>
