<svg width="20" height="20" viewBox="0 0 20 20" fill="none" xmlns="http://www.w3.org/2000/svg">
<path d="M9.99984 15.8337C10.8839 15.8337 11.7317 15.4825 12.3569 14.8573C12.982 14.2322 13.3332 13.3844 13.3332 12.5003C13.3332 11.6163 12.982 10.7684 12.3569 10.1433C11.7317 9.51818 10.8839 9.16699 9.99984 9.16699C9.11578 9.16699 8.26794 9.51818 7.64281 10.1433C7.01769 10.7684 6.6665 11.6163 6.6665 12.5003C6.6665 13.3844 7.01769 14.2322 7.64281 14.8573C8.26794 15.4825 9.11578 15.8337 9.99984 15.8337V15.8337Z" stroke="#828282" stroke-width="1.2" stroke-miterlimit="10" stroke-linecap="round" stroke-linejoin="round"/>
<path d="M8.69971 12.5003L9.24137 13.0419C9.39971 13.2003 9.65804 13.2086 9.81637 13.0503L11.2997 11.6836" stroke="#828282" stroke-width="1.2" stroke-linecap="round" stroke-linejoin="round"/>
<path d="M7.49986 18.3337H12.4999C15.8499 18.3337 16.4499 16.992 16.6249 15.3587L17.2499 10.3587C17.4749 8.32533 16.8915 6.66699 13.3332 6.66699H6.66652C3.10819 6.66699 2.52486 8.32533 2.74986 10.3587L3.37486 15.3587C3.54986 16.992 4.14986 18.3337 7.49986 18.3337Z" stroke="#828282" stroke-width="1.2" stroke-miterlimit="10" stroke-linecap="round" stroke-linejoin="round"/>
<path d="M6.25 6.3918V5.58346C6.25 3.70846 7.75833 1.8668 9.63333 1.6918C10.1543 1.64061 10.6802 1.69907 11.1773 1.86341C11.6743 2.02775 12.1314 2.29434 12.5192 2.646C12.9069 2.99767 13.2168 3.42663 13.4288 3.90527C13.6408 4.38392 13.7502 4.90164 13.75 5.42513V6.57513" stroke="#828282" stroke-width="1.2" stroke-miterlimit="10" stroke-linecap="round" stroke-linejoin="round"/>
</svg>
