<svg width="22" height="22" viewBox="0 0 22 22" fill="none" xmlns="http://www.w3.org/2000/svg">
<path d="M14.2173 2.59412H7.78234C5.49984 2.59412 4.99567 3.73078 4.70234 5.12412L3.6665 10.0833H18.3332L17.2973 5.12412C17.004 3.73078 16.4998 2.59412 14.2173 2.59412V2.59412Z" stroke="#2F80ED" stroke-width="1.5" stroke-linecap="round" stroke-linejoin="round"/>
<path d="M20.1575 18.1683C20.2583 19.2408 19.3967 20.1666 18.2967 20.1666H16.5733C15.5833 20.1666 15.4458 19.7449 15.2717 19.2224L15.0883 18.6724C14.8317 17.9208 14.6667 17.4166 13.3467 17.4166H8.65334C7.33334 17.4166 7.14084 17.9849 6.91167 18.6724L6.72834 19.2224C6.55417 19.7449 6.41667 20.1666 5.42667 20.1666H3.70334C2.60334 20.1666 1.74167 19.2408 1.8425 18.1683L2.35584 12.5858C2.48417 11.2108 2.75 10.0833 5.15167 10.0833H16.8483C19.25 10.0833 19.5158 11.2108 19.6442 12.5858L20.1575 18.1683Z" stroke="#2F80ED" stroke-width="1.5" stroke-linecap="round" stroke-linejoin="round"/>
<path d="M3.66667 7.33325H2.75" stroke="#2F80ED" stroke-width="1.5" stroke-linecap="round" stroke-linejoin="round"/>
<path d="M19.2502 7.33325H18.3335" stroke="#2F80ED" stroke-width="1.5" stroke-linecap="round" stroke-linejoin="round"/>
<path d="M11 2.75V4.58333" stroke="#2F80ED" stroke-width="1.5" stroke-linecap="round" stroke-linejoin="round"/>
<path d="M9.625 4.58325H12.375" stroke="#2F80ED" stroke-width="1.5" stroke-linecap="round" stroke-linejoin="round"/>
<path d="M5.5 13.75H8.25" stroke="#2F80ED" stroke-width="1.5" stroke-linecap="round" stroke-linejoin="round"/>
<path d="M13.75 13.75H16.5" stroke="#2F80ED" stroke-width="1.5" stroke-linecap="round" stroke-linejoin="round"/>
</svg>
