<svg width="20" height="21" viewBox="0 0 20 21" fill="none" xmlns="http://www.w3.org/2000/svg">
<path d="M12.9835 10.5C12.9835 12.15 11.6502 13.4833 10.0002 13.4833C8.35018 13.4833 7.01685 12.15 7.01685 10.5C7.01685 8.85 8.35018 7.51666 10.0002 7.51666C11.6502 7.51666 12.9835 8.85 12.9835 10.5Z" stroke="#4F4F4F" stroke-width="1.5" stroke-linecap="round" stroke-linejoin="round"/>
<path d="M10.0001 17.3917C12.9418 17.3917 15.6834 15.6583 17.5918 12.6583C18.3418 11.4833 18.3418 9.50834 17.5918 8.33334C15.6834 5.33334 12.9418 3.60001 10.0001 3.60001C7.05845 3.60001 4.31678 5.33334 2.40845 8.33334C1.65845 9.50834 1.65845 11.4833 2.40845 12.6583C4.31678 15.6583 7.05845 17.3917 10.0001 17.3917Z" stroke="#4F4F4F" stroke-width="1.5" stroke-linecap="round" stroke-linejoin="round"/>
</svg>
