<svg width="20" height="20" viewBox="0 0 20 20" fill="none" xmlns="http://www.w3.org/2000/svg">
<path d="M9.97493 18.3332C14.5774 18.3332 18.3083 14.6023 18.3083 9.99984C18.3083 5.39734 14.5774 1.6665 9.97493 1.6665C5.37244 1.6665 1.6416 5.39734 1.6416 9.99984C1.6416 14.6023 5.37244 18.3332 9.97493 18.3332V18.3332Z" stroke="#828282" stroke-width="1.2" stroke-linecap="round" stroke-linejoin="round"/>
<path d="M10 13.75C10.9946 13.75 11.9484 13.3549 12.6516 12.6516C13.3549 11.9484 13.75 10.9946 13.75 10C13.75 9.00544 13.3549 8.05161 12.6516 7.34835C11.9484 6.64509 10.9946 6.25 10 6.25C9.00544 6.25 8.05161 6.64509 7.34835 7.34835C6.64509 8.05161 6.25 9.00544 6.25 10C6.25 10.9946 6.64509 11.9484 7.34835 12.6516C8.05161 13.3549 9.00544 13.75 10 13.75V13.75Z" stroke="#828282" stroke-width="1.2" stroke-linecap="round" stroke-linejoin="round"/>
<path d="M4.08301 4.1084L7.03301 7.05006" stroke="#828282" stroke-width="1.2" stroke-linecap="round" stroke-linejoin="round"/>
<path d="M4.08301 15.8914L7.03301 12.9497" stroke="#828282" stroke-width="1.2" stroke-linecap="round" stroke-linejoin="round"/>
<path d="M15.8748 15.8914L12.9248 12.9497" stroke="#828282" stroke-width="1.2" stroke-linecap="round" stroke-linejoin="round"/>
<path d="M15.8748 4.1084L12.9248 7.05006" stroke="#828282" stroke-width="1.2" stroke-linecap="round" stroke-linejoin="round"/>
</svg>
