<svg width="22" height="22" viewBox="0 0 22 22" fill="none" xmlns="http://www.w3.org/2000/svg">
<path d="M10.9723 20.1668C16.0351 20.1668 20.139 16.0629 20.139 11.0002C20.139 5.93741 16.0351 1.8335 10.9723 1.8335C5.90958 1.8335 1.80566 5.93741 1.80566 11.0002C1.80566 16.0629 5.90958 20.1668 10.9723 20.1668V20.1668Z" stroke="#2F80ED" stroke-width="1.5" stroke-linecap="round" stroke-linejoin="round"/>
<path d="M11 15.125C12.094 15.125 13.1432 14.6904 13.9168 13.9168C14.6904 13.1432 15.125 12.094 15.125 11C15.125 9.90598 14.6904 8.85677 13.9168 8.08318C13.1432 7.3096 12.094 6.875 11 6.875C9.90598 6.875 8.85677 7.3096 8.08318 8.08318C7.3096 8.85677 6.875 9.90598 6.875 11C6.875 12.094 7.3096 13.1432 8.08318 13.9168C8.85677 14.6904 9.90598 15.125 11 15.125V15.125Z" stroke="#2F80ED" stroke-width="1.5" stroke-linecap="round" stroke-linejoin="round"/>
<path d="M4.49121 4.51953L7.73621 7.75536" stroke="#2F80ED" stroke-width="1.5" stroke-linecap="round" stroke-linejoin="round"/>
<path d="M4.4917 17.4809L7.7367 14.2451" stroke="#2F80ED" stroke-width="1.5" stroke-linecap="round" stroke-linejoin="round"/>
<path d="M17.4623 17.4809L14.2173 14.2451" stroke="#2F80ED" stroke-width="1.5" stroke-linecap="round" stroke-linejoin="round"/>
<path d="M17.4623 4.51953L14.2173 7.75536" stroke="#2F80ED" stroke-width="1.5" stroke-linecap="round" stroke-linejoin="round"/>
</svg>
