<svg width="22" height="22" viewBox="0 0 22 22" fill="none" xmlns="http://www.w3.org/2000/svg">
<path d="M6.85645 16.8209L9.69811 19.0209C10.0648 19.3876 10.8898 19.5709 11.4398 19.5709H14.9231C16.0231 19.5709 17.2148 18.7459 17.4898 17.6459L19.6898 10.9542C20.1481 9.67089 19.3231 8.57089 17.9481 8.57089H14.2814C13.7314 8.57089 13.2731 8.11255 13.3648 7.47089L13.8231 4.53755C14.0064 3.71255 13.4564 2.79589 12.6314 2.52089C11.8981 2.24589 10.9814 2.61255 10.6148 3.16255L6.85645 8.75422" stroke="#2F80ED" stroke-width="1.5" stroke-miterlimit="10"/>
<path d="M2.18164 16.8208V7.83749C2.18164 6.55416 2.73164 6.09583 4.01497 6.09583H4.93164C6.21497 6.09583 6.76497 6.55416 6.76497 7.83749V16.8208C6.76497 18.1042 6.21497 18.5625 4.93164 18.5625H4.01497C2.73164 18.5625 2.18164 18.1042 2.18164 16.8208Z" stroke="#2F80ED" stroke-width="1.5" stroke-linecap="round" stroke-linejoin="round"/>
</svg>
