<svg width="20" height="20" viewBox="0 0 20 20" fill="none" xmlns="http://www.w3.org/2000/svg">
<path d="M9.9999 11.1917C10.3413 11.1917 10.6794 11.1244 10.9949 10.9938C11.3103 10.8631 11.5969 10.6716 11.8384 10.4302C12.0798 10.1887 12.2713 9.90212 12.402 9.58668C12.5327 9.27123 12.5999 8.93314 12.5999 8.5917C12.5999 8.25026 12.5327 7.91217 12.402 7.59672C12.2713 7.28128 12.0798 6.99465 11.8384 6.75322C11.5969 6.51179 11.3103 6.32027 10.9949 6.18961C10.6794 6.05895 10.3413 5.9917 9.9999 5.9917C9.31034 5.9917 8.64902 6.26563 8.16142 6.75322C7.67383 7.24082 7.3999 7.90214 7.3999 8.5917C7.3999 9.28126 7.67383 9.94258 8.16142 10.4302C8.64902 10.9178 9.31034 11.1917 9.9999 11.1917V11.1917Z" stroke="#2F80ED" stroke-width="1.5"/>
<path d="M3.01675 7.07484C4.65842 -0.141828 15.3501 -0.133494 16.9834 7.08317C17.9417 11.3165 15.3084 14.8998 13.0001 17.1165C12.1935 17.8945 11.1165 18.3292 9.99592 18.3292C8.87529 18.3292 7.79835 17.8945 6.99175 17.1165C4.69175 14.8998 2.05842 11.3082 3.01675 7.07484V7.07484Z" stroke="#2F80ED" stroke-width="1.5"/>
</svg>
