<svg width="20" height="20" viewBox="0 0 20 20" fill="none" xmlns="http://www.w3.org/2000/svg">
<path d="M2.84484 11.4817L1.6665 12.66L5.79067 14.4275L7.559 18.5525L8.73734 17.3742L8.14817 14.4275L10.909 11.6667L13.9173 18.0867L15.0332 16.9708L14.0415 8.53499L16.3982 6.17749C16.5574 6.02375 16.6843 5.83984 16.7717 5.6365C16.859 5.43316 16.905 5.21446 16.9069 4.99316C16.9088 4.77186 16.8667 4.5524 16.7829 4.34757C16.6991 4.14274 16.5753 3.95666 16.4188 3.80017C16.2623 3.64368 16.0763 3.51992 15.8714 3.43612C15.6666 3.35232 15.4471 3.31015 15.2258 3.31207C15.0045 3.314 14.7858 3.35998 14.5825 3.44732C14.3792 3.53467 14.1952 3.66164 14.0415 3.82083L11.6223 6.23999L3.1865 5.24749L2.13234 6.30249L8.50234 9.36082L5.7915 12.0717L2.84484 11.4817Z" fill="#4F4F4F"/>
</svg>
