<svg width="24" height="24" viewBox="0 0 24 24" fill="none" xmlns="http://www.w3.org/2000/svg">
<path d="M19.3399 14.49L18.3399 12.83C18.1299 12.46 17.9399 11.76 17.9399 11.35V8.81998C17.9387 7.70401 17.6216 6.61119 17.0252 5.66795C16.4288 4.72471 15.5776 3.9696 14.5699 3.48998C14.3128 3.03332 13.9376 2.65412 13.4838 2.39201C13.0299 2.1299 12.514 1.99451 11.9899 1.99998C10.8999 1.99998 9.91994 2.58998 9.39994 3.51998C7.44994 4.48998 6.09994 6.49998 6.09994 8.81998V11.35C6.09994 11.76 5.90994 12.46 5.69994 12.82L4.68994 14.49C4.28994 15.16 4.19994 15.9 4.44994 16.58C4.68994 17.25 5.25994 17.77 5.99994 18.02C7.93994 18.68 9.97994 19 12.0199 19C14.0599 19 16.0999 18.68 18.0399 18.03C18.7399 17.8 19.2799 17.27 19.5399 16.58C19.7999 15.89 19.7299 15.13 19.3399 14.49Z" fill="#828282"/>
<path d="M14.8299 20.01C14.6196 20.5922 14.2352 21.0954 13.7289 21.4515C13.2226 21.8075 12.6189 21.999 11.9999 22C11.2099 22 10.4299 21.68 9.87993 21.11C9.55993 20.81 9.31993 20.41 9.17993 20C9.30993 20.02 9.43993 20.03 9.57993 20.05C9.80993 20.08 10.0499 20.11 10.2899 20.13C10.8599 20.18 11.4399 20.21 12.0199 20.21C12.5899 20.21 13.1599 20.18 13.7199 20.13C13.9299 20.11 14.1399 20.1 14.3399 20.07L14.8299 20.01Z" fill="#828282"/>
<circle cx="17" cy="6" r="5" fill="#EB5757" stroke="white" stroke-width="2"/>
</svg>
