<svg width="28" height="28" viewBox="0 0 28 28" fill="none" xmlns="http://www.w3.org/2000/svg">
<path d="M21.5835 4.79502L15.7618 2.61335C14.7935 2.25169 13.2068 2.25169 12.2385 2.61335L6.41685 4.79502C5.07518 5.29669 3.97852 6.88335 3.97852 8.30669V16.975C3.97852 18.3517 4.88852 20.16 5.99685 20.9884L11.0135 24.7334C12.6585 25.97 15.3652 25.97 17.0102 24.7334L22.0268 20.9884C23.1352 20.16 24.0452 18.3517 24.0452 16.975V8.30669C24.0218 6.88335 22.9252 5.29669 21.5835 4.79502ZM13.9185 8.20169C15.2952 8.20169 16.4152 9.32169 16.4152 10.6984C16.4152 12.0517 15.3535 13.1367 14.0118 13.1834H13.8952C12.4952 13.1367 11.4452 12.0517 11.4452 10.6984C11.4335 9.32169 12.5535 8.20169 13.9185 8.20169ZM16.5552 19.0867C15.8435 19.5534 14.9218 19.7984 14.0002 19.7984C13.0785 19.7984 12.1452 19.565 11.4452 19.0867C10.7802 18.6434 10.4185 18.0367 10.4068 17.3717C10.4068 16.7184 10.7802 16.0884 11.4452 15.645C12.8568 14.7117 15.1552 14.7117 16.5668 15.645C17.2318 16.0884 17.6052 16.695 17.6052 17.36C17.5935 18.0134 17.2202 18.6434 16.5552 19.0867Z" fill="white"/>
</svg>
