<svg width="82" height="20" viewBox="0 0 82 20" fill="none" xmlns="http://www.w3.org/2000/svg">
<g clip-path="url(#clip0_1_1282)">
<path d="M10.0002 14.1667L5.10186 17.1584L6.43353 11.575L2.0752 7.84171L7.79603 7.38337L10.0002 2.08337L12.2044 7.38337L17.926 7.84171L13.5669 11.575L14.8985 17.1584L10.0002 14.1667Z" fill="#F2994A"/>
</g>
<g clip-path="url(#clip1_1_1282)">
<path d="M28.0002 14.1667L23.1019 17.1584L24.4335 11.575L20.0752 7.84171L25.796 7.38337L28.0002 2.08337L30.2044 7.38337L35.926 7.84171L31.5669 11.575L32.8985 17.1584L28.0002 14.1667Z" fill="#F2994A"/>
</g>
<g clip-path="url(#clip2_1_1282)">
<path d="M46.0002 14.1667L41.1019 17.1584L42.4335 11.575L38.0752 7.84171L43.796 7.38337L46.0002 2.08337L48.2044 7.38337L53.926 7.84171L49.5669 11.575L50.8985 17.1584L46.0002 14.1667Z" fill="#F2994A"/>
</g>
<g clip-path="url(#clip3_1_1282)">
<path d="M64.0002 14.1667L59.1019 17.1584L60.4335 11.575L56.0752 7.84171L61.796 7.38337L64.0002 2.08337L66.2044 7.38337L71.926 7.84171L67.5669 11.575L68.8985 17.1584L64.0002 14.1667Z" fill="#F2994A"/>
</g>
<g clip-path="url(#clip4_1_1282)">
<path d="M82.0002 14.1667L77.1019 17.1584L78.4335 11.575L74.0752 7.84171L79.796 7.38337L82.0002 2.08337L84.2044 7.38337L89.926 7.84171L85.5669 11.575L86.8985 17.1584L82.0002 14.1667Z" fill="#F2994A"/>
</g>
<defs>
<clipPath id="clip0_1_1282">
<rect width="20" height="20" fill="white"/>
</clipPath>
<clipPath id="clip1_1_1282">
<rect width="20" height="20" fill="white" transform="translate(18)"/>
</clipPath>
<clipPath id="clip2_1_1282">
<rect width="20" height="20" fill="white" transform="translate(36)"/>
</clipPath>
<clipPath id="clip3_1_1282">
<rect width="20" height="20" fill="white" transform="translate(54)"/>
</clipPath>
<clipPath id="clip4_1_1282">
<rect width="10" height="20" fill="white" transform="translate(72)"/>
</clipPath>
</defs>
</svg>
