<svg width="22" height="22" viewBox="0 0 22 22" fill="none" xmlns="http://www.w3.org/2000/svg">
<path d="M9.23051 2.58519L2.87801 7.67269C2.16301 8.24102 1.70467 9.44185 1.86051 10.3402L3.07967 17.6369C3.29967 18.9385 4.54634 19.9927 5.86634 19.9927H16.133C17.4438 19.9927 18.6997 18.9294 18.9197 17.6369L20.1388 10.3402C20.2855 9.44185 19.8272 8.24102 19.1213 7.67269L12.7688 2.59435C11.788 1.80602 10.2022 1.80602 9.23051 2.58519V2.58519Z" stroke="#2F80ED" stroke-width="1.5" stroke-linecap="round" stroke-linejoin="round"/>
<path d="M9.05664 13.182C10.2208 12.0728 11.7791 12.0728 12.9433 13.182" stroke="#2F80ED" stroke-width="1.5" stroke-linecap="round" stroke-linejoin="round"/>
<path d="M14.886 11.2387C14.4137 10.7746 13.8687 10.3907 13.2727 10.1021C12.5625 9.75822 11.7838 9.57959 10.9948 9.57959C10.2058 9.57959 9.42699 9.75822 8.71685 10.1021C8.14852 10.3771 7.60768 10.7529 7.10352 11.2387" stroke="#2F80ED" stroke-width="1.5" stroke-linecap="round" stroke-linejoin="round"/>
<path d="M10.9951 15.5835H11.0035" stroke="#2F80ED" stroke-width="2" stroke-linecap="round" stroke-linejoin="round"/>
</svg>
