<svg width="22" height="22" viewBox="0 0 22 22" fill="none" xmlns="http://www.w3.org/2000/svg">
<path d="M1.8335 13.75H16.9585C18.7277 13.75 20.1668 15.1892 20.1668 16.9583C20.1668 18.7275 18.7277 20.1667 16.9585 20.1667C15.1893 20.1667 13.7502 18.7275 13.7502 16.9583V16.5" stroke="#2F80ED" stroke-width="1.5" stroke-miterlimit="10" stroke-linecap="round" stroke-linejoin="round"/>
<path d="M1.8335 11.0002H16.9585C18.7185 11.0002 20.1668 9.561 20.1668 7.79183C20.1668 6.03183 18.7185 4.5835 16.9585 4.5835C16.1083 4.58591 15.2937 4.92471 14.6925 5.52587C14.0914 6.12702 13.7526 6.94167 13.7502 7.79183V8.25016" stroke="#2F80ED" stroke-width="1.5" stroke-miterlimit="10" stroke-linecap="round" stroke-linejoin="round"/>
<path d="M1.8335 8.25003H8.53433C9.02203 8.25003 9.49877 8.10541 9.90427 7.83446C10.3098 7.56351 10.6258 7.1784 10.8125 6.72783C10.9991 6.27726 11.0479 5.78146 10.9528 5.30313C10.8576 4.82481 10.6228 4.38544 10.2779 4.04059C9.93308 3.69573 9.49371 3.46089 9.01539 3.36574C8.53706 3.2706 8.04127 3.31943 7.5907 3.50606C7.14012 3.69269 6.75501 4.00875 6.48406 4.41425C6.21311 4.81975 6.0685 5.2965 6.0685 5.78419V6.13253" stroke="#2F80ED" stroke-width="1.5" stroke-miterlimit="10" stroke-linecap="round" stroke-linejoin="round"/>
</svg>
